<svg version="1.1" id="Layer_1" xmlns="http://www.w3.org/2000/svg" xmlns:xlink="http://www.w3.org/1999/xlink" x="0px" y="0px"
	 width="100%" viewBox="0 0 512 512" enable-background="new 0 0 512 512" xml:space="preserve">
<path fill="#FFFFFF" opacity="1.000000" stroke="none" 
	d="
M513.000000,424.000000 
	C513.000000,453.647858 513.000000,483.295685 513.000000,512.942139 
	C342.333313,512.940796 171.666656,512.940796 1.000000,512.940796 
	C1.000000,483.566864 1.000000,454.252106 1.338988,424.505920 
	C7.816059,432.425507 16.399742,434.102417 26.212221,434.093903 
	C180.464584,433.960114 334.717102,433.983887 488.969574,434.040985 
	C498.000397,434.044312 506.214874,432.730316 511.618835,424.427734 
	C511.821014,424.117096 512.528198,424.135132 513.000000,424.000000 
z"/>
<path fill="#FFFFFF" opacity="1.000000" stroke="none" 
	d="
M1.000000,92.000000 
	C1.000000,61.685787 1.000000,31.371572 1.000003,1.058580 
	C171.666672,1.059801 342.333344,1.059801 513.000000,1.059801 
	C513.000000,31.100630 513.000000,61.081657 512.656677,91.406670 
	C510.149536,84.204071 504.454559,80.003723 496.302246,80.003189 
	C414.899994,79.997894 333.497742,79.999207 252.095505,80.006737 
	C250.767227,80.006859 249.438950,80.108238 247.640076,80.089218 
	C171.788193,80.008636 96.406601,80.099419 21.025970,79.871841 
	C11.397175,79.842781 4.910045,83.385826 1.000000,92.000000 
z"/>
<path fill="#2B5881" opacity="1.000000" stroke="none" 
	d="
M1.000000,92.468658 
	C4.910045,83.385826 11.397175,79.842781 21.025970,79.871841 
	C96.406601,80.099419 171.788193,80.008636 247.631958,80.547134 
	C248.144516,92.483459 248.194580,103.888741 248.193817,115.741394 
	C248.177536,127.670441 248.212067,139.152100 248.190826,151.126923 
	C248.169312,163.092041 248.203568,174.564011 248.177826,186.498642 
	C248.153397,198.325134 248.188950,209.688965 248.178955,221.515778 
	C248.041107,233.417160 247.948792,244.855576 247.413483,256.408264 
	C244.975098,256.549225 242.979691,256.599152 240.984299,256.599243 
	C163.133194,256.603180 85.282104,256.599396 7.431009,256.619232 
	C5.287307,256.619781 3.143668,256.867523 1.000000,257.000000 
	C1.000000,202.312439 1.000000,147.624878 1.000000,92.468658 
M203.594681,133.644653 
	C208.872757,136.833694 208.529724,141.664490 207.118042,147.187729 
	C212.460449,142.869049 217.569000,143.049942 223.068970,147.060089 
	C220.639526,140.562057 222.411453,135.889069 227.930832,132.024979 
	C221.021454,132.368164 217.157593,128.982193 214.941116,122.804306 
	C213.012863,128.586151 209.813858,131.810226 203.997681,131.677231 
	C203.715591,131.670776 203.413071,132.557037 203.594681,133.644653 
M119.253403,134.970535 
	C120.026787,134.129929 120.800179,133.289307 122.309052,131.649277 
	C115.196060,132.252930 111.176682,129.101608 108.863220,122.654594 
	C107.611900,129.903168 102.644493,131.571213 96.491730,132.279953 
	C102.413101,136.044876 103.104401,141.056763 101.172699,147.177689 
	C106.578384,142.968460 111.569183,142.796234 116.550125,147.337906 
	C117.787949,143.057373 113.473740,138.343338 119.253403,134.970535 
M72.732491,191.370789 
	C71.258873,197.140091 66.853035,198.679306 61.009563,198.866943 
	C66.713409,202.719543 68.022087,207.640717 66.059486,213.983002 
	C71.492279,209.143539 76.554344,210.473251 81.928108,213.875015 
	C79.401062,207.549759 81.156822,202.882401 86.667450,198.511292 
	C79.119888,199.913635 76.490250,195.395874 74.179771,190.405884 
	C74.151573,190.344986 73.440125,190.600449 72.732491,191.370789 
M118.155815,202.895340 
	C119.344101,201.677933 120.532387,200.460526 121.720673,199.243134 
	C114.850395,199.237473 111.214310,195.848419 109.045761,189.634872 
	C107.222000,196.160751 103.138191,198.980576 96.546471,198.399582 
	C101.941940,205.785660 101.941940,205.785660 101.263077,214.732391 
	C106.430183,209.209000 111.615509,210.270355 116.055252,213.481979 
	C116.617973,209.857346 117.117638,206.638840 118.155815,202.895340 
M87.552933,92.293724 
	C86.402481,98.098122 81.254433,97.511986 75.814552,98.674515 
	C82.142807,102.551575 83.527397,107.448006 81.304199,113.710533 
	C86.644424,109.718285 91.620186,109.319969 97.106255,113.503296 
	C94.618095,106.912224 97.210335,102.374451 101.918991,98.299522 
	C94.784630,98.959755 91.333092,95.345459 89.588280,88.844269 
	C88.702484,90.298386 88.284386,90.984741 87.552933,92.293724 
M196.213898,224.614288 
	C195.566101,224.543106 194.369171,224.337036 194.348816,224.419968 
	C192.859100,230.484573 188.195297,231.914658 182.127716,232.447784 
	C188.433792,235.867569 189.113342,241.038895 187.452911,247.397827 
	C192.783768,242.850571 197.762482,243.694229 203.146484,247.135132 
	C200.462189,240.507645 202.980469,236.085342 208.742737,232.199158 
	C202.861710,231.509323 197.808762,231.308777 196.213898,224.614288 
M94.829346,230.991653 
	C92.937035,228.529282 91.044724,226.066910 88.734657,223.060928 
	C87.579079,229.706100 82.951164,232.034790 76.563622,232.137146 
	C82.195602,238.884048 82.195602,238.884048 81.628922,247.163254 
	C84.164352,246.019012 86.512894,244.121964 88.859131,244.124802 
	C91.444107,244.127930 94.026978,245.876190 97.538567,247.219040 
	C94.771492,240.776581 96.919914,236.097855 102.557533,232.299728 
	C99.528610,231.761597 97.568001,231.413269 94.829346,230.991653 
M45.204437,236.612305 
	C45.841118,239.953171 46.477802,243.294037 47.135666,246.746033 
	C48.992798,245.977203 51.529846,244.116074 54.075619,244.104050 
	C56.555790,244.092346 59.044891,245.972534 61.722000,247.103149 
	C61.119858,239.394867 61.119858,239.394867 66.867485,231.594681 
	C59.668320,232.986984 56.128479,229.146912 53.812435,222.968826 
	C52.200134,230.025497 47.560482,232.064209 40.808357,231.958710 
	C42.476994,233.722870 43.586094,234.895447 45.204437,236.612305 
M26.545204,246.122452 
	C24.255812,240.382370 26.630882,236.057053 31.684660,232.478836 
	C23.545475,230.579315 23.545475,230.579315 18.227409,222.879608 
	C16.884848,229.606552 12.489326,232.173096 5.612023,232.479446 
	C12.422370,235.688141 12.119366,241.208588 10.516095,248.397003 
	C16.192944,243.306915 20.712193,243.417313 25.244211,246.819107 
	C25.442484,246.967957 25.875399,246.804184 26.545204,246.122452 
M171.274460,203.450455 
	C171.775909,206.768890 172.277344,210.087326 172.874435,214.038742 
	C177.436752,208.565628 182.504074,210.788010 188.823608,214.928467 
	C185.345749,207.516876 187.130859,202.869370 192.420395,198.772278 
	C185.313583,199.394821 181.972809,195.373047 179.326141,189.599884 
	C178.248993,197.117325 173.072601,198.458115 166.960449,198.553375 
	C166.884171,199.035370 166.807892,199.517365 166.731598,199.999344 
	C168.071396,200.975021 169.411194,201.950684 171.274460,203.450455 
M145.431686,191.153549 
	C144.620895,191.435150 143.255280,191.528900 143.086334,192.027832 
	C141.621399,196.354202 138.858215,198.552994 134.180008,198.232651 
	C133.535965,198.188553 132.848602,198.777206 131.026321,199.584732 
	C138.367188,202.656616 137.901306,208.028107 136.600159,214.011246 
	C141.728226,209.652222 146.727112,210.126801 152.174225,213.456650 
	C150.095093,207.150208 151.888916,202.638412 158.589355,198.643036 
	C151.990112,198.217728 147.031601,197.751434 145.431686,191.153549 
M19.852543,157.969376 
	C19.450855,157.454849 19.049166,156.940323 18.256950,155.925568 
	C16.775620,162.530243 12.782530,165.619522 5.696362,165.543152 
	C12.007980,169.056976 12.443541,174.174088 10.994234,180.630875 
	C16.260084,175.640106 21.250072,176.955948 26.750732,180.344543 
	C23.741785,173.744461 26.760571,169.445084 32.140366,165.179886 
	C26.192173,164.750641 21.421272,164.389709 19.852543,157.969376 
M128.807938,111.954773 
	C129.822220,112.306358 130.836502,112.657951 132.905762,113.375237 
	C129.977036,106.770920 132.693130,102.381226 137.215729,98.330536 
	C129.964127,99.016220 126.632248,95.165138 124.436234,89.023018 
	C123.030067,95.978493 118.613029,98.508049 111.606781,98.646393 
	C117.764977,102.166069 118.466911,107.185181 116.603035,113.013832 
	C120.904778,112.821869 123.985176,107.844917 128.807938,111.954773 
M115.370575,169.203873 
	C120.158150,171.929276 115.672394,176.527542 117.605789,180.497879 
	C122.275200,176.170166 127.108673,176.773590 132.336853,180.173935 
	C130.024551,173.692093 132.555481,169.248734 137.656036,165.482681 
	C129.797852,164.060562 129.797852,164.060562 124.187294,156.034286 
	C122.717216,162.500565 118.732712,165.631683 111.332489,164.974426 
	C113.070602,166.820816 113.952789,167.757965 115.370575,169.203873 
M192.681168,111.063080 
	C196.036438,111.518051 199.391708,111.973022 203.140579,112.481369 
	C200.445404,106.905632 203.218567,102.413322 207.798340,98.271042 
	C200.787079,98.981316 197.435547,95.406464 195.262222,87.920387 
	C193.237274,95.533928 189.246338,98.727051 182.454788,98.197983 
	C188.000137,105.190735 188.000137,105.190735 187.482971,113.668930 
	C189.080185,112.866425 190.551620,112.127121 192.681168,111.063080 
M21.736837,94.932106 
	C20.763962,93.103554 19.791086,91.275002 18.264069,88.404915 
	C16.857948,95.898933 12.618828,98.665222 5.640979,98.758385 
	C12.131294,102.181259 12.347739,107.358025 11.073154,113.448792 
	C16.253593,109.432014 21.090166,109.763016 26.360441,113.324715 
	C24.096045,106.866257 26.609436,102.411842 31.079872,99.097145 
	C27.672352,97.792091 24.856489,96.713638 21.736837,94.932106 
M91.176796,159.558502 
	C90.630615,158.521133 90.084427,157.483765 88.846489,155.132538 
	C87.500420,162.884079 83.091797,165.260941 76.592819,165.496140 
	C81.861305,169.388428 83.591179,174.076538 81.397400,180.452057 
	C86.756378,176.382050 91.734192,176.367310 97.102661,180.351959 
	C94.890411,173.872116 96.638817,169.197495 102.337311,165.722534 
	C98.043831,163.960449 92.866318,165.646500 91.176796,159.558502 
M190.542404,179.052078 
	C194.866989,174.808121 198.696930,178.913940 203.766510,180.554733 
	C200.402985,173.740158 203.222198,169.292389 209.161072,164.673172 
	C200.862091,165.682297 197.220917,162.341034 195.182465,156.053741 
	C193.383926,162.640457 189.142166,165.467422 182.492157,165.624817 
	C187.999557,169.479034 189.542664,174.073166 186.714767,180.380783 
	C188.401779,179.850998 189.125534,179.623718 190.542404,179.052078 
M36.156826,193.775620 
	C35.074875,199.460388 29.287640,196.911957 25.600330,199.533676 
	C31.658600,202.642792 32.320148,207.571609 30.950497,213.643890 
	C36.089272,209.772598 40.941711,210.137131 46.183792,213.478836 
	C44.053112,207.147400 46.355087,202.677246 51.121590,198.600815 
	C43.840187,199.484863 40.701523,195.367432 38.640949,189.188522 
	C37.619175,191.089737 37.074390,192.103424 36.156826,193.775620 
M155.005310,230.882950 
	C152.497589,231.297165 149.989868,231.711395 146.099228,232.354034 
	C152.827042,236.141342 154.162460,240.969925 151.597122,247.117218 
	C159.951202,244.264130 159.951202,244.264130 168.340851,247.200821 
	C165.239349,240.796402 167.570221,236.158554 172.713867,232.220352 
	C166.017380,232.391022 161.915421,229.553238 160.166245,222.529556 
	C158.250183,225.986069 156.984482,228.269348 155.005310,230.882950 
M160.855423,157.613525 
	C160.227432,157.624176 159.086884,157.503189 159.045456,157.664474 
	C157.522003,163.596039 153.044556,165.235260 147.098236,165.475525 
	C152.657852,169.255219 154.310852,173.963882 151.994766,180.680771 
	C157.378250,175.501617 162.489044,177.120651 168.179047,180.258942 
	C164.457199,173.439545 168.223343,169.399475 173.354355,165.198196 
	C167.390167,164.734436 162.464218,164.333511 160.855423,157.613525 
M115.459145,236.145493 
	C120.170082,238.895569 115.619034,243.477890 117.602493,247.389435 
	C122.298958,242.929016 127.141388,243.787750 132.353134,247.023468 
	C130.113586,240.610458 132.327942,236.085480 137.233521,232.178772 
	C130.008331,232.695679 126.633484,228.836853 124.410286,221.366379 
	C122.904655,229.641739 118.402908,232.128922 111.912064,232.039047 
	C111.793167,232.520798 111.674271,233.002548 111.555382,233.484314 
	C112.677299,234.202621 113.799225,234.920929 115.459145,236.145493 
M151.611343,103.245193 
	C152.007141,106.499702 152.402954,109.754204 152.894745,113.797935 
	C157.512131,108.529808 162.598450,110.378159 168.037155,113.532600 
	C165.041901,107.109154 167.814972,102.574432 172.353790,98.255585 
	C165.096054,99.299011 162.268997,94.929489 159.694717,87.963127 
	C157.894485,95.889526 153.892456,98.748062 146.498856,97.923309 
	C148.632767,100.182076 149.841019,101.461014 151.611343,103.245193 
M222.920135,212.031815 
	C220.405197,206.484299 223.233810,202.665909 227.685394,198.884689 
	C221.091232,198.938110 216.929443,196.233719 215.118958,189.642563 
	C213.057144,195.893677 209.280380,199.131256 202.238586,198.926056 
	C208.664917,202.666870 208.828140,207.930267 207.221756,213.991638 
	C212.223679,210.042374 216.839676,209.720505 221.584518,213.298355 
	C221.791000,213.454056 222.476089,212.975037 222.920135,212.031815 
M147.426544,144.760239 
	C148.863647,145.412796 150.300751,146.065353 152.785828,147.193787 
	C150.129211,140.548492 151.746826,135.836655 157.355225,131.793503 
	C149.882629,132.862198 146.676361,128.627487 144.292953,122.727097 
	C142.660202,129.491241 138.239670,131.907379 130.492157,131.643524 
	C136.510284,135.858536 139.371552,139.902863 135.564941,146.736145 
	C138.421783,145.743805 140.016769,144.999191 141.693710,144.661530 
	C143.331787,144.331696 145.053513,144.417267 147.426544,144.760239 
M238.016708,97.632721 
	C232.678284,97.598297 233.236664,92.012863 229.854065,89.018181 
	C229.103775,96.172836 224.390213,98.375244 217.721802,98.668747 
	C223.414856,102.347160 224.604309,107.199799 222.950470,113.443016 
	C228.180313,109.396049 233.005325,109.834358 238.212891,113.302094 
	C236.078964,106.872818 238.282425,102.350563 243.939957,98.462509 
	C241.339676,98.118401 240.065826,97.949821 238.016708,97.632721 
M72.032913,144.076279 
	C75.215866,144.830002 78.398819,145.583740 81.506294,146.319595 
	C80.924110,139.294540 80.924110,139.294540 86.307495,131.560059 
	C79.487846,132.433868 75.985573,128.581436 73.364998,122.727592 
	C72.463272,130.383240 66.933609,131.294281 59.762344,132.091873 
	C67.124329,135.903214 67.793182,140.939102 65.470398,147.418625 
	C68.100685,146.076340 69.708466,145.255859 72.032913,144.076279 
M26.967703,133.505753 
	C32.400047,136.516861 31.682907,141.508087 30.336685,147.998672 
	C36.038574,142.842590 40.982841,143.071594 46.282505,146.860474 
	C44.039604,140.452103 46.008381,135.867844 51.332138,131.731293 
	C43.702988,132.888580 40.715302,128.530548 38.398483,121.340988 
	C36.742382,128.805939 32.972397,131.813995 26.916180,131.823700 
	C26.776077,131.823929 26.637161,132.562866 26.967703,133.505753 
M51.768326,93.333206 
	C50.344437,98.658707 45.321548,97.288628 40.630775,98.756485 
	C46.643879,102.393379 48.419739,107.072311 45.986019,113.532570 
	C51.429058,109.457932 56.537231,109.816139 62.274494,113.451111 
	C58.519302,106.759705 62.357933,102.677696 66.446823,98.315262 
	C59.358879,99.188515 56.205460,95.024910 54.048485,88.989189 
	C53.006351,90.898361 52.530888,91.769402 51.768326,93.333206 
M226.213654,245.746994 
	C230.408005,241.508072 234.023895,246.151535 238.686905,246.971497 
	C236.080475,240.620117 238.062561,236.008667 243.250900,232.212769 
	C236.190262,232.704941 232.662537,228.904526 230.166672,222.868073 
	C228.973633,230.138855 224.133453,231.949524 216.396378,232.024612 
	C223.349030,236.064926 224.778091,240.861389 222.525269,246.734940 
	C223.514435,246.734940 223.854965,246.811981 224.138412,246.717606 
	C224.608459,246.561111 225.041779,246.294357 226.213654,245.746994 
M187.697052,146.034271 
	C185.603226,140.406769 187.258728,135.872238 192.396774,131.992447 
	C185.499084,132.228165 181.704880,128.961288 179.698959,122.700233 
	C177.982529,129.466217 173.490677,131.937180 166.954269,132.264633 
	C173.068802,135.864227 173.635788,140.929474 172.026337,147.370361 
	C177.388901,141.574814 182.364624,144.328903 187.697052,146.034271 
M65.567566,165.056763 
	C59.487778,165.489929 56.026772,162.040283 53.793327,156.332901 
	C51.979050,163.073227 47.600033,165.432114 41.125744,165.520554 
	C46.953445,169.270386 48.171307,174.119690 46.057655,180.478104 
	C51.496723,176.289536 56.512081,176.372345 61.993759,180.531860 
	C59.115086,173.955475 61.951710,169.637146 66.217163,165.782394 
	C66.298012,165.709335 66.220627,165.461197 65.567566,165.056763 
M221.854996,169.735367 
	C222.489395,173.065781 223.123795,176.396194 223.833176,180.120224 
	C228.108337,176.403366 232.955627,176.517166 238.198792,180.280685 
	C236.113663,173.854233 237.899536,169.184097 243.253326,165.398544 
	C236.246277,165.674576 232.489487,162.231216 230.382675,156.083633 
	C228.768570,162.800629 224.372162,165.411133 217.740173,165.158981 
	C217.760696,165.601547 217.781235,166.044128 217.801758,166.486694 
	C218.979645,167.398621 220.157547,168.310547 221.854996,169.735367 
z"/>
<path fill="#E5E4E4" opacity="1.000000" stroke="none" 
	d="
M1.000000,363.000000 
	C1.000000,351.312439 1.000000,339.624878 1.467251,327.508423 
	C171.291672,327.084961 340.648834,327.090485 510.006012,327.091766 
	C511.003998,327.091797 512.002014,327.031921 513.000000,327.000000 
	C513.000000,338.687561 513.000000,350.375122 512.552734,362.375610 
	C511.273438,362.661743 510.441467,362.611420 509.609497,362.611389 
	C341.553619,362.607697 173.497772,362.606567 5.441905,362.623535 
	C3.961257,362.623688 2.480634,362.869080 1.000000,363.000000 
z"/>
<path fill="#E6E7E8" opacity="1.000000" stroke="none" 
	d="
M513.000000,423.531342 
	C512.528198,424.135132 511.821014,424.117096 511.618835,424.427734 
	C506.214874,432.730316 498.000397,434.044312 488.969574,434.040985 
	C334.717102,433.983887 180.464584,433.960114 26.212221,434.093903 
	C16.399742,434.102417 7.816059,432.425507 1.338988,424.037262 
	C1.000000,415.645782 1.000000,407.291534 1.468528,398.456604 
	C172.291367,397.983948 342.645691,397.991974 513.000000,398.000000 
	C513.000000,406.354218 513.000000,414.708466 513.000000,423.531342 
z"/>
<path fill="#C03A2B" opacity="1.000000" stroke="none" 
	d="
M513.000000,397.531342 
	C342.645691,397.991974 172.291367,397.983948 1.468528,397.987976 
	C1.000000,386.645782 1.000000,375.291534 1.000000,363.468658 
	C2.480634,362.869080 3.961257,362.623688 5.441905,362.623535 
	C173.497772,362.606567 341.553619,362.607697 509.609497,362.611389 
	C510.441467,362.611420 511.273438,362.661743 512.552734,362.844299 
	C513.000000,374.354218 513.000000,385.708466 513.000000,397.531342 
z"/>
<path fill="#C03A2B" opacity="1.000000" stroke="none" 
	d="
M513.000000,326.531342 
	C512.002014,327.031921 511.003998,327.091797 510.006012,327.091766 
	C340.648834,327.090485 171.291672,327.084961 1.467251,327.039795 
	C1.000000,315.645782 1.000000,304.291534 1.468011,292.441742 
	C160.634445,291.942627 319.332886,291.937714 478.031311,291.938354 
	C489.687531,291.938416 501.343781,291.978516 513.000000,292.000000 
	C513.000000,303.354218 513.000000,314.708466 513.000000,326.531342 
z"/>
<path fill="#E6E6E7" opacity="1.000000" stroke="none" 
	d="
M513.000000,291.531311 
	C501.343781,291.978516 489.687531,291.938416 478.031311,291.938354 
	C319.332886,291.937714 160.634445,291.942627 1.468011,291.973083 
	C1.000000,280.645782 1.000000,269.291534 1.000000,257.468658 
	C3.143668,256.867523 5.287307,256.619781 7.431009,256.619232 
	C85.282104,256.599396 163.133194,256.603180 240.984299,256.599243 
	C242.979691,256.599152 244.975098,256.549225 247.875275,256.549347 
	C250.943604,256.609741 253.107147,256.672638 255.270691,256.672760 
	C339.028320,256.677734 422.785919,256.674530 506.543549,256.690491 
	C508.695740,256.690887 510.847839,256.892334 513.000000,257.000000 
	C513.000000,268.354218 513.000000,279.708466 513.000000,291.531311 
z"/>
<path fill="#E5E4E4" opacity="1.000000" stroke="none" 
	d="
M248.246613,150.633759 
	C248.212067,139.152100 248.177536,127.670441 248.643295,115.712631 
	C334.934723,115.222092 420.725861,115.209099 506.516998,115.185272 
	C508.678040,115.184669 510.838989,115.064445 513.000000,115.000000 
	C513.000000,126.687561 513.000000,138.375122 512.540161,150.430969 
	C435.960663,150.783463 359.840973,150.772385 283.721252,150.746918 
	C271.896362,150.742950 260.071503,150.673126 248.246613,150.633759 
z"/>
<path fill="#C13D2F" opacity="1.000000" stroke="none" 
	d="
M513.000000,256.531342 
	C510.847839,256.892334 508.695740,256.690887 506.543549,256.690491 
	C422.785919,256.674530 339.028320,256.677734 255.270691,256.672760 
	C253.107147,256.672638 250.943604,256.609741 248.318268,256.435059 
	C247.948792,244.855576 248.041107,233.417160 248.628738,221.538208 
	C336.418854,221.111328 423.713654,221.125320 511.008423,221.132935 
	C511.672272,221.132980 512.336121,221.046219 513.000000,221.000000 
	C513.000000,232.687561 513.000000,244.375122 513.000000,256.531342 
z"/>
<path fill="#E6E7E8" opacity="1.000000" stroke="none" 
	d="
M513.000000,220.531342 
	C512.336121,221.046219 511.672272,221.132980 511.008423,221.132935 
	C423.713654,221.125320 336.418854,221.111328 248.674286,221.075226 
	C248.188950,209.688965 248.153397,198.325134 248.627228,186.481232 
	C337.091095,186.000763 425.045532,186.000381 513.000000,186.000000 
	C513.000000,197.354233 513.000000,208.708450 513.000000,220.531342 
z"/>
<path fill="#C03A2B" opacity="1.000000" stroke="none" 
	d="
M513.000000,185.531342 
	C425.045532,186.000381 337.091095,186.000763 248.687225,186.018555 
	C248.203568,174.564011 248.169312,163.092041 248.190826,151.126923 
	C260.071503,150.673126 271.896362,150.742950 283.721252,150.746918 
	C359.840973,150.772385 435.960663,150.783463 512.540161,150.899628 
	C513.000000,162.354233 513.000000,173.708450 513.000000,185.531342 
z"/>
<path fill="#C03A2B" opacity="1.000000" stroke="none" 
	d="
M513.000000,114.531380 
	C510.838989,115.064445 508.678040,115.184669 506.516998,115.185272 
	C420.725861,115.209099 334.934723,115.222092 248.694122,115.265244 
	C248.194580,103.888741 248.144516,92.483459 248.102554,80.620270 
	C249.438950,80.108238 250.767227,80.006859 252.095505,80.006737 
	C333.497742,79.999207 414.899994,79.997894 496.302246,80.003189 
	C504.454559,80.003723 510.149536,84.204071 512.656677,91.875328 
	C513.000000,99.354256 513.000000,106.708504 513.000000,114.531380 
z"/>
<path fill="#E3E9EC" opacity="1.000000" stroke="none" 
	d="
M203.357361,133.336121 
	C203.413071,132.557037 203.715591,131.670776 203.997681,131.677231 
	C209.813858,131.810226 213.012863,128.586151 214.941116,122.804306 
	C217.157593,128.982193 221.021454,132.368164 227.930832,132.024979 
	C222.411453,135.889069 220.639526,140.562057 223.068970,147.060089 
	C217.569000,143.049942 212.460449,142.869049 207.118042,147.187729 
	C208.529724,141.664490 208.872757,136.833694 203.357361,133.336121 
z"/>
<path fill="#E5EBED" opacity="1.000000" stroke="none" 
	d="
M119.000679,135.228394 
	C113.473740,138.343338 117.787949,143.057373 116.550125,147.337906 
	C111.569183,142.796234 106.578384,142.968460 101.172699,147.177689 
	C103.104401,141.056763 102.413101,136.044876 96.491730,132.279953 
	C102.644493,131.571213 107.611900,129.903168 108.863220,122.654594 
	C111.176682,129.101608 115.196060,132.252930 122.309052,131.649277 
	C120.800179,133.289307 120.026787,134.129929 119.000679,135.228394 
z"/>
<path fill="#E3E9EC" opacity="1.000000" stroke="none" 
	d="
M72.890045,191.039520 
	C73.440125,190.600449 74.151573,190.344986 74.179771,190.405884 
	C76.490250,195.395874 79.119888,199.913635 86.667450,198.511292 
	C81.156822,202.882401 79.401062,207.549759 81.928108,213.875015 
	C76.554344,210.473251 71.492279,209.143539 66.059486,213.983002 
	C68.022087,207.640717 66.713409,202.719543 61.009563,198.866943 
	C66.853035,198.679306 71.258873,197.140091 72.890045,191.039520 
z"/>
<path fill="#E4EAED" opacity="1.000000" stroke="none" 
	d="
M117.886566,203.157837 
	C117.117638,206.638840 116.617973,209.857346 116.055252,213.481979 
	C111.615509,210.270355 106.430183,209.209000 101.263077,214.732391 
	C101.941940,205.785660 101.941940,205.785660 96.546471,198.399582 
	C103.138191,198.980576 107.222000,196.160751 109.045761,189.634872 
	C111.214310,195.848419 114.850395,199.237473 121.720673,199.243134 
	C120.532387,200.460526 119.344101,201.677933 117.886566,203.157837 
z"/>
<path fill="#E4EAED" opacity="1.000000" stroke="none" 
	d="
M87.709610,91.982407 
	C88.284386,90.984741 88.702484,90.298386 89.588280,88.844269 
	C91.333092,95.345459 94.784630,98.959755 101.918991,98.299522 
	C97.210335,102.374451 94.618095,106.912224 97.106255,113.503296 
	C91.620186,109.319969 86.644424,109.718285 81.304199,113.710533 
	C83.527397,107.448006 82.142807,102.551575 75.814552,98.674515 
	C81.254433,97.511986 86.402481,98.098122 87.709610,91.982407 
z"/>
<path fill="#E4EAEC" opacity="1.000000" stroke="none" 
	d="
M196.399887,224.918549 
	C197.808762,231.308777 202.861710,231.509323 208.742737,232.199158 
	C202.980469,236.085342 200.462189,240.507645 203.146484,247.135132 
	C197.762482,243.694229 192.783768,242.850571 187.452911,247.397827 
	C189.113342,241.038895 188.433792,235.867569 182.127716,232.447784 
	C188.195297,231.914658 192.859100,230.484573 194.348816,224.419968 
	C194.369171,224.337036 195.566101,224.543106 196.399887,224.918549 
z"/>
<path fill="#E4EAEC" opacity="1.000000" stroke="none" 
	d="
M95.218369,231.028290 
	C97.568001,231.413269 99.528610,231.761597 102.557533,232.299728 
	C96.919914,236.097855 94.771492,240.776581 97.538567,247.219040 
	C94.026978,245.876190 91.444107,244.127930 88.859131,244.124802 
	C86.512894,244.121964 84.164352,246.019012 81.628922,247.163254 
	C82.195602,238.884048 82.195602,238.884048 76.563622,232.137146 
	C82.951164,232.034790 87.579079,229.706100 88.734657,223.060928 
	C91.044724,226.066910 92.937035,228.529282 95.218369,231.028290 
z"/>
<path fill="#E5EAED" opacity="1.000000" stroke="none" 
	d="
M44.949814,236.340179 
	C43.586094,234.895447 42.476994,233.722870 40.808357,231.958710 
	C47.560482,232.064209 52.200134,230.025497 53.812435,222.968826 
	C56.128479,229.146912 59.668320,232.986984 66.867485,231.594681 
	C61.119858,239.394867 61.119858,239.394867 61.722000,247.103149 
	C59.044891,245.972534 56.555790,244.092346 54.075619,244.104050 
	C51.529846,244.116074 48.992798,245.977203 47.135666,246.746033 
	C46.477802,243.294037 45.841118,239.953171 44.949814,236.340179 
z"/>
<path fill="#E6EBED" opacity="1.000000" stroke="none" 
	d="
M26.372107,246.454254 
	C25.875399,246.804184 25.442484,246.967957 25.244211,246.819107 
	C20.712193,243.417313 16.192944,243.306915 10.516095,248.397003 
	C12.119366,241.208588 12.422370,235.688141 5.612023,232.479446 
	C12.489326,232.173096 16.884848,229.606552 18.227409,222.879608 
	C23.545475,230.579315 23.545475,230.579315 31.684660,232.478836 
	C26.630882,236.057053 24.255812,240.382370 26.372107,246.454254 
z"/>
<path fill="#E5EAED" opacity="1.000000" stroke="none" 
	d="
M171.012726,203.188416 
	C169.411194,201.950684 168.071396,200.975021 166.731598,199.999344 
	C166.807892,199.517365 166.884171,199.035370 166.960449,198.553375 
	C173.072601,198.458115 178.248993,197.117325 179.326141,189.599884 
	C181.972809,195.373047 185.313583,199.394821 192.420395,198.772278 
	C187.130859,202.869370 185.345749,207.516876 188.823608,214.928467 
	C182.504074,210.788010 177.436752,208.565628 172.874435,214.038742 
	C172.277344,210.087326 171.775909,206.768890 171.012726,203.188416 
z"/>
<path fill="#E4EAED" opacity="1.000000" stroke="none" 
	d="
M145.623688,191.472076 
	C147.031601,197.751434 151.990112,198.217728 158.589355,198.643036 
	C151.888916,202.638412 150.095093,207.150208 152.174225,213.456650 
	C146.727112,210.126801 141.728226,209.652222 136.600159,214.011246 
	C137.901306,208.028107 138.367188,202.656616 131.026321,199.584732 
	C132.848602,198.777206 133.535965,198.188553 134.180008,198.232651 
	C138.858215,198.552994 141.621399,196.354202 143.086334,192.027832 
	C143.255280,191.528900 144.620895,191.435150 145.623688,191.472076 
z"/>
<path fill="#E4EAED" opacity="1.000000" stroke="none" 
	d="
M19.985701,158.297882 
	C21.421272,164.389709 26.192173,164.750641 32.140366,165.179886 
	C26.760571,169.445084 23.741785,173.744461 26.750732,180.344543 
	C21.250072,176.955948 16.260084,175.640106 10.994234,180.630875 
	C12.443541,174.174088 12.007980,169.056976 5.696362,165.543152 
	C12.782530,165.619522 16.775620,162.530243 18.256950,155.925568 
	C19.049166,156.940323 19.450855,157.454849 19.985701,158.297882 
z"/>
<path fill="#E4EAED" opacity="1.000000" stroke="none" 
	d="
M128.449249,111.768097 
	C123.985176,107.844917 120.904778,112.821869 116.603035,113.013832 
	C118.466911,107.185181 117.764977,102.166069 111.606781,98.646393 
	C118.613029,98.508049 123.030067,95.978493 124.436234,89.023018 
	C126.632248,95.165138 129.964127,99.016220 137.215729,98.330536 
	C132.693130,102.381226 129.977036,106.770920 132.905762,113.375237 
	C130.836502,112.657951 129.822220,112.306358 128.449249,111.768097 
z"/>
<path fill="#E5EAED" opacity="1.000000" stroke="none" 
	d="
M115.102776,168.949493 
	C113.952789,167.757965 113.070602,166.820816 111.332489,164.974426 
	C118.732712,165.631683 122.717216,162.500565 124.187294,156.034286 
	C129.797852,164.060562 129.797852,164.060562 137.656036,165.482681 
	C132.555481,169.248734 130.024551,173.692093 132.336853,180.173935 
	C127.108673,176.773590 122.275200,176.170166 117.605789,180.497879 
	C115.672394,176.527542 120.158150,171.929276 115.102776,168.949493 
z"/>
<path fill="#E3E9EC" opacity="1.000000" stroke="none" 
	d="
M192.352112,111.225449 
	C190.551620,112.127121 189.080185,112.866425 187.482971,113.668930 
	C188.000137,105.190735 188.000137,105.190735 182.454788,98.197983 
	C189.246338,98.727051 193.237274,95.533928 195.262222,87.920387 
	C197.435547,95.406464 200.787079,98.981316 207.798340,98.271042 
	C203.218567,102.413322 200.445404,106.905632 203.140579,112.481369 
	C199.391708,111.973022 196.036438,111.518051 192.352112,111.225449 
z"/>
<path fill="#E5EBED" opacity="1.000000" stroke="none" 
	d="
M21.888733,95.283646 
	C24.856489,96.713638 27.672352,97.792091 31.079872,99.097145 
	C26.609436,102.411842 24.096045,106.866257 26.360441,113.324715 
	C21.090166,109.763016 16.253593,109.432014 11.073154,113.448792 
	C12.347739,107.358025 12.131294,102.181259 5.640979,98.758385 
	C12.618828,98.665222 16.857948,95.898933 18.264069,88.404915 
	C19.791086,91.275002 20.763962,93.103554 21.888733,95.283646 
z"/>
<path fill="#E4EAEC" opacity="1.000000" stroke="none" 
	d="
M91.356293,159.876343 
	C92.866318,165.646500 98.043831,163.960449 102.337311,165.722534 
	C96.638817,169.197495 94.890411,173.872116 97.102661,180.351959 
	C91.734192,176.367310 86.756378,176.382050 81.397400,180.452057 
	C83.591179,174.076538 81.861305,169.388428 76.592819,165.496140 
	C83.091797,165.260941 87.500420,162.884079 88.846489,155.132538 
	C90.084427,157.483765 90.630615,158.521133 91.356293,159.876343 
z"/>
<path fill="#E3E9EC" opacity="1.000000" stroke="none" 
	d="
M190.195847,179.224243 
	C189.125534,179.623718 188.401779,179.850998 186.714767,180.380783 
	C189.542664,174.073166 187.999557,169.479034 182.492157,165.624817 
	C189.142166,165.467422 193.383926,162.640457 195.182465,156.053741 
	C197.220917,162.341034 200.862091,165.682297 209.161072,164.673172 
	C203.222198,169.292389 200.402985,173.740158 203.766510,180.554733 
	C198.696930,178.913940 194.866989,174.808121 190.195847,179.224243 
z"/>
<path fill="#E4EAEC" opacity="1.000000" stroke="none" 
	d="
M36.343216,193.446365 
	C37.074390,192.103424 37.619175,191.089737 38.640949,189.188522 
	C40.701523,195.367432 43.840187,199.484863 51.121590,198.600815 
	C46.355087,202.677246 44.053112,207.147400 46.183792,213.478836 
	C40.941711,210.137131 36.089272,209.772598 30.950497,213.643890 
	C32.320148,207.571609 31.658600,202.642792 25.600330,199.533676 
	C29.287640,196.911957 35.074875,199.460388 36.343216,193.446365 
z"/>
<path fill="#E4EAEC" opacity="1.000000" stroke="none" 
	d="
M155.362045,230.717789 
	C156.984482,228.269348 158.250183,225.986069 160.166245,222.529556 
	C161.915421,229.553238 166.017380,232.391022 172.713867,232.220352 
	C167.570221,236.158554 165.239349,240.796402 168.340851,247.200821 
	C159.951202,244.264130 159.951202,244.264130 151.597122,247.117218 
	C154.162460,240.969925 152.827042,236.141342 146.099228,232.354034 
	C149.989868,231.711395 152.497589,231.297165 155.362045,230.717789 
z"/>
<path fill="#E5EBED" opacity="1.000000" stroke="none" 
	d="
M161.014557,157.963211 
	C162.464218,164.333511 167.390167,164.734436 173.354355,165.198196 
	C168.223343,169.399475 164.457199,173.439545 168.179047,180.258942 
	C162.489044,177.120651 157.378250,175.501617 151.994766,180.680771 
	C154.310852,173.963882 152.657852,169.255219 147.098236,165.475525 
	C153.044556,165.235260 157.522003,163.596039 159.045456,157.664474 
	C159.086884,157.503189 160.227432,157.624176 161.014557,157.963211 
z"/>
<path fill="#E6EBED" opacity="1.000000" stroke="none" 
	d="
M115.190140,235.892365 
	C113.799225,234.920929 112.677299,234.202621 111.555382,233.484314 
	C111.674271,233.002548 111.793167,232.520798 111.912064,232.039047 
	C118.402908,232.128922 122.904655,229.641739 124.410286,221.366379 
	C126.633484,228.836853 130.008331,232.695679 137.233521,232.178772 
	C132.327942,236.085480 130.113586,240.610458 132.353134,247.023468 
	C127.141388,243.787750 122.298958,242.929016 117.602493,247.389435 
	C115.619034,243.477890 120.170082,238.895569 115.190140,235.892365 
z"/>
<path fill="#E4EAED" opacity="1.000000" stroke="none" 
	d="
M151.330307,102.992577 
	C149.841019,101.461014 148.632767,100.182076 146.498856,97.923309 
	C153.892456,98.748062 157.894485,95.889526 159.694717,87.963127 
	C162.268997,94.929489 165.096054,99.299011 172.353790,98.255585 
	C167.814972,102.574432 165.041901,107.109154 168.037155,113.532600 
	C162.598450,110.378159 157.512131,108.529808 152.894745,113.797935 
	C152.402954,109.754204 152.007141,106.499702 151.330307,102.992577 
z"/>
<path fill="#E5EBED" opacity="1.000000" stroke="none" 
	d="
M222.929184,212.411743 
	C222.476089,212.975037 221.791000,213.454056 221.584518,213.298355 
	C216.839676,209.720505 212.223679,210.042374 207.221756,213.991638 
	C208.828140,207.930267 208.664917,202.666870 202.238586,198.926056 
	C209.280380,199.131256 213.057144,195.893677 215.118958,189.642563 
	C216.929443,196.233719 221.091232,198.938110 227.685394,198.884689 
	C223.233810,202.665909 220.405197,206.484299 222.929184,212.411743 
z"/>
<path fill="#E5EBED" opacity="1.000000" stroke="none" 
	d="
M147.082520,144.540359 
	C145.053513,144.417267 143.331787,144.331696 141.693710,144.661530 
	C140.016769,144.999191 138.421783,145.743805 135.564941,146.736145 
	C139.371552,139.902863 136.510284,135.858536 130.492157,131.643524 
	C138.239670,131.907379 142.660202,129.491241 144.292953,122.727097 
	C146.676361,128.627487 149.882629,132.862198 157.355225,131.793503 
	C151.746826,135.836655 150.129211,140.548492 152.785828,147.193787 
	C150.300751,146.065353 148.863647,145.412796 147.082520,144.540359 
z"/>
<path fill="#E4EAEC" opacity="1.000000" stroke="none" 
	d="
M238.404358,97.706985 
	C240.065826,97.949821 241.339676,98.118401 243.939957,98.462509 
	C238.282425,102.350563 236.078964,106.872818 238.212891,113.302094 
	C233.005325,109.834358 228.180313,109.396049 222.950470,113.443016 
	C224.604309,107.199799 223.414856,102.347160 217.721802,98.668747 
	C224.390213,98.375244 229.103775,96.172836 229.854065,89.018181 
	C233.236664,92.012863 232.678284,97.598297 238.404358,97.706985 
z"/>
<path fill="#E6EBED" opacity="1.000000" stroke="none" 
	d="
M71.674576,144.255829 
	C69.708466,145.255859 68.100685,146.076340 65.470398,147.418625 
	C67.793182,140.939102 67.124329,135.903214 59.762344,132.091873 
	C66.933609,131.294281 72.463272,130.383240 73.364998,122.727592 
	C75.985573,128.581436 79.487846,132.433868 86.307495,131.560059 
	C80.924110,139.294540 80.924110,139.294540 81.506294,146.319595 
	C78.398819,145.583740 75.215866,144.830002 71.674576,144.255829 
z"/>
<path fill="#E5EBED" opacity="1.000000" stroke="none" 
	d="
M26.732698,133.231491 
	C26.637161,132.562866 26.776077,131.823929 26.916180,131.823700 
	C32.972397,131.813995 36.742382,128.805939 38.398483,121.340988 
	C40.715302,128.530548 43.702988,132.888580 51.332138,131.731293 
	C46.008381,135.867844 44.039604,140.452103 46.282505,146.860474 
	C40.982841,143.071594 36.038574,142.842590 30.336685,147.998672 
	C31.682907,141.508087 32.400047,136.516861 26.732698,133.231491 
z"/>
<path fill="#E4EAED" opacity="1.000000" stroke="none" 
	d="
M51.911873,92.986832 
	C52.530888,91.769402 53.006351,90.898361 54.048485,88.989189 
	C56.205460,95.024910 59.358879,99.188515 66.446823,98.315262 
	C62.357933,102.677696 58.519302,106.759705 62.274494,113.451111 
	C56.537231,109.816139 51.429058,109.457932 45.986019,113.532570 
	C48.419739,107.072311 46.643879,102.393379 40.630775,98.756485 
	C45.321548,97.288628 50.344437,98.658707 51.911873,92.986832 
z"/>
<path fill="#E7ECEE" opacity="1.000000" stroke="none" 
	d="
M225.852112,245.910538 
	C225.041779,246.294357 224.608459,246.561111 224.138412,246.717606 
	C223.854965,246.811981 223.514435,246.734940 222.525269,246.734940 
	C224.778091,240.861389 223.349030,236.064926 216.396378,232.024612 
	C224.133453,231.949524 228.973633,230.138855 230.166672,222.868073 
	C232.662537,228.904526 236.190262,232.704941 243.250900,232.212769 
	C238.062561,236.008667 236.080475,240.620117 238.686905,246.971497 
	C234.023895,246.151535 230.408005,241.508072 225.852112,245.910538 
z"/>
<path fill="#E5EBED" opacity="1.000000" stroke="none" 
	d="
M187.519684,146.365936 
	C182.364624,144.328903 177.388901,141.574814 172.026337,147.370361 
	C173.635788,140.929474 173.068802,135.864227 166.954269,132.264633 
	C173.490677,131.937180 177.982529,129.466217 179.698959,122.700233 
	C181.704880,128.961288 185.499084,132.228165 192.396774,131.992447 
	C187.258728,135.872238 185.603226,140.406769 187.519684,146.365936 
z"/>
<path fill="#E5EBED" opacity="1.000000" stroke="none" 
	d="
M65.892319,165.175751 
	C66.220627,165.461197 66.298012,165.709335 66.217163,165.782394 
	C61.951710,169.637146 59.115086,173.955475 61.993759,180.531860 
	C56.512081,176.372345 51.496723,176.289536 46.057655,180.478104 
	C48.171307,174.119690 46.953445,169.270386 41.125744,165.520554 
	C47.600033,165.432114 51.979050,163.073227 53.793327,156.332901 
	C56.026772,162.040283 59.487778,165.489929 65.892319,165.175751 
z"/>
<path fill="#E7ECEE" opacity="1.000000" stroke="none" 
	d="
M221.595215,169.478912 
	C220.157547,168.310547 218.979645,167.398621 217.801758,166.486694 
	C217.781235,166.044128 217.760696,165.601547 217.740173,165.158981 
	C224.372162,165.411133 228.768570,162.800629 230.382675,156.083633 
	C232.489487,162.231216 236.246277,165.674576 243.253326,165.398544 
	C237.899536,169.184097 236.113663,173.854233 238.198792,180.280685 
	C232.955627,176.517166 228.108337,176.403366 223.833176,180.120224 
	C223.123795,176.396194 222.489395,173.065781 221.595215,169.478912 
z"/>
</svg>